<svg width="96" height="96" xmlns="http://www.w3.org/2000/svg" xmlns:xlink="http://www.w3.org/1999/xlink" xml:space="preserve" overflow="hidden"><g transform="translate(-544 -337)"><path d="M561.4 354C559.511 354.011 557.989 355.551 558 357.44 558 357.44 558 357.44 558 357.44L558 398.78 558 398.78C557.989 400.669 559.511 402.209 561.4 402.22 561.4 402.22 561.4 402.22 561.4 402.22L571.6 402.22 571.6 416 585.2 402.22 622.6 402.22C624.489 402.209 626.011 400.669 626 398.78 626 398.78 626 398.78 626 398.78L626 357.44 626 357.44C626.011 355.551 624.489 354.011 622.6 354 622.6 354 622.6 354 622.6 354ZM603 378C603 375.239 605.239 373 608 373 610.761 373 613 375.239 613 378 613 380.761 610.761 383 608 383 605.239 383 603 380.761 603 378ZM587 378C587 375.239 589.239 373 592 373 594.761 373 597 375.239 597 378 597 380.761 594.761 383 592 383 589.239 383 587 380.761 587 378ZM571 378C571 375.239 573.239 373 576 373 578.761 373 581 375.239 581 378 581 380.761 578.761 383 576 383 573.239 383 571 380.761 571 378Z" fill="#FFFFFF"/></g></svg>