<svg width="96" height="96" xmlns="http://www.w3.org/2000/svg" xmlns:xlink="http://www.w3.org/1999/xlink" xml:space="preserve" overflow="hidden"><g transform="translate(-344 -337)"><path d="M361.4 354C359.511 354.011 357.989 355.551 358 357.44 358 357.44 358 357.44 358 357.44L358 398.78 358 398.78C357.989 400.669 359.511 402.209 361.4 402.22 361.4 402.22 361.4 402.22 361.4 402.22L371.6 402.22 371.6 416 385.2 402.22 422.6 402.22C424.489 402.209 426.011 400.669 426 398.78 426 398.78 426 398.78 426 398.78L426 357.44 426 357.44C426.011 355.551 424.489 354.011 422.6 354 422.6 354 422.6 354 422.6 354ZM403 378C403 375.239 405.239 373 408 373 410.761 373 413 375.239 413 378 413 380.761 410.761 383 408 383 405.239 383 403 380.761 403 378ZM387 378C387 375.239 389.239 373 392 373 394.761 373 397 375.239 397 378 397 380.761 394.761 383 392 383 389.239 383 387 380.761 387 378ZM371 378C371 375.239 373.239 373 376 373 378.761 373 381 375.239 381 378 381 380.761 378.761 383 376 383 373.239 383 371 380.761 371 378Z" fill="#E0144C"/></g></svg>