<svg width="96" height="96" xmlns="http://www.w3.org/2000/svg" xmlns:xlink="http://www.w3.org/1999/xlink" xml:space="preserve" overflow="hidden"><g transform="translate(-196 -333)"><path d="M213.4 350C211.511 350.011 209.989 351.551 210 353.44 210 353.44 210 353.44 210 353.44L210 394.78 210 394.78C209.989 396.669 211.511 398.209 213.4 398.22 213.4 398.22 213.4 398.22 213.4 398.22L223.6 398.22 223.6 412 237.2 398.22 274.6 398.22C276.489 398.209 278.011 396.669 278 394.78 278 394.78 278 394.78 278 394.78L278 353.44 278 353.44C278.011 351.551 276.489 350.011 274.6 350 274.6 350 274.6 350 274.6 350ZM255 374C255 371.239 257.239 369 260 369 262.761 369 265 371.239 265 374 265 376.761 262.761 379 260 379 257.239 379 255 376.761 255 374ZM239 374C239 371.239 241.239 369 244 369 246.761 369 249 371.239 249 374 249 376.761 246.761 379 244 379 241.239 379 239 376.761 239 374ZM223 374C223 371.239 225.239 369 228 369 230.761 369 233 371.239 233 374 233 376.761 230.761 379 228 379 225.239 379 223 376.761 223 374Z" fill="#C8CDE5"/></g></svg>