<svg width="96" height="96" xmlns="http://www.w3.org/2000/svg" xmlns:xlink="http://www.w3.org/1999/xlink" xml:space="preserve" overflow="hidden"><g transform="translate(-540 -167)"><path d="M588 211C583 211 579 207 579 202 579 197 583 193 588 193 593 193 597 197 597 202 597 207 593 211 588 211ZM588 181C581.1 181 574.6 184.4 570.7 190.2 566.8 195.9 566 203.2 568.5 209.7L578 230.7 586.2 247.9C586.5 248.6 587.2 249 588 249 588.8 249 589.5 248.6 589.8 247.9L598 230.7 607.5 209.7C610 203.2 609.2 195.9 605.3 190.2 601.4 184.4 594.9 181 588 181Z" fill="#FFFFFF"/></g></svg>