<svg width="96" height="96" xmlns="http://www.w3.org/2000/svg" xmlns:xlink="http://www.w3.org/1999/xlink" xml:space="preserve" overflow="hidden"><g transform="translate(-192 -162)"><path d="M240 206C235 206 231 202 231 197 231 192 235 188 240 188 245 188 249 192 249 197 249 202 245 206 240 206ZM240 176C233.1 176 226.6 179.4 222.7 185.2 218.8 190.9 218 198.2 220.5 204.7L230 225.7 238.2 242.9C238.5 243.6 239.2 244 240 244 240.8 244 241.5 243.6 241.8 242.9L250 225.7 259.5 204.7C262 198.2 261.2 190.9 257.3 185.2 253.4 179.4 246.9 176 240 176Z" fill="#C8CDE5"/></g></svg>