<svg width="96" height="96" xmlns="http://www.w3.org/2000/svg" xmlns:xlink="http://www.w3.org/1999/xlink" xml:space="preserve" overflow="hidden"><g transform="translate(-340 -167)"><path d="M388 211C383 211 379 207 379 202 379 197 383 193 388 193 393 193 397 197 397 202 397 207 393 211 388 211ZM388 181C381.1 181 374.6 184.4 370.7 190.2 366.8 195.9 366 203.2 368.5 209.7L378 230.7 386.2 247.9C386.5 248.6 387.2 249 388 249 388.8 249 389.5 248.6 389.8 247.9L398 230.7 407.5 209.7C410 203.2 409.2 195.9 405.3 190.2 401.4 184.4 394.9 181 388 181Z" fill="#E0144C"/></g></svg>