<svg width="96" height="96" xmlns="http://www.w3.org/2000/svg" xmlns:xlink="http://www.w3.org/1999/xlink" xml:space="preserve" overflow="hidden"><g transform="translate(-538 -71)"><path d="M623.5 146.6 611 134.1C609.3 132.4 607 131.8 604.8 132.2L600.4 127.8C604.3 122.8 606.6 116.4 606.6 109.6 606.6 93.1 593.1 79.6 576.6 79.6 560.1 79.6 546.6 93.1 546.6 109.6 546.6 126.1 560.1 139.6 576.6 139.6 583.4 139.6 589.7 137.3 594.8 133.4L599.2 137.8C598.8 140 599.4 142.3 601.1 144L613.6 156.5C615 157.9 616.8 158.6 618.6 158.6 620.4 158.6 622.2 157.9 623.6 156.5 626.2 153.7 626.2 149.3 623.5 146.6ZM576.5 133.5C563.3 133.5 552.5 122.7 552.5 109.5 552.5 96.3 563.3 85.5 576.5 85.5 589.7 85.5 600.5 96.3 600.5 109.5 600.5 122.7 589.7 133.5 576.5 133.5Z" fill="#FFFFFF"/></g></svg>