<svg width="96" height="96" xmlns="http://www.w3.org/2000/svg" xmlns:xlink="http://www.w3.org/1999/xlink" xml:space="preserve" overflow="hidden"><g transform="translate(-191 -66)"><path d="M276.5 141.6 264 129.1C262.3 127.4 260 126.8 257.8 127.2L253.4 122.8C257.3 117.8 259.6 111.4 259.6 104.6 259.6 88.1 246.1 74.6 229.6 74.6 213.1 74.6 199.6 88.1 199.6 104.6 199.6 121.1 213.1 134.6 229.6 134.6 236.4 134.6 242.7 132.3 247.8 128.4L252.2 132.8C251.8 135 252.4 137.3 254.1 139L266.6 151.5C268 152.9 269.8 153.6 271.6 153.6 273.4 153.6 275.2 152.9 276.6 151.5 279.2 148.7 279.2 144.3 276.5 141.6ZM229.5 128.5C216.3 128.5 205.5 117.7 205.5 104.5 205.5 91.3 216.3 80.5 229.5 80.5 242.7 80.5 253.5 91.3 253.5 104.5 253.5 117.7 242.7 128.5 229.5 128.5Z" fill="#C8CDE5"/></g></svg>