<svg width="96" height="96" xmlns="http://www.w3.org/2000/svg" xmlns:xlink="http://www.w3.org/1999/xlink" xml:space="preserve" overflow="hidden"><g transform="translate(-339 -71)"><path d="M424.5 146.6 412 134.1C410.3 132.4 408 131.8 405.8 132.2L401.4 127.8C405.3 122.8 407.6 116.4 407.6 109.6 407.6 93.1 394.1 79.6 377.6 79.6 361.1 79.6 347.6 93.1 347.6 109.6 347.6 126.1 361.1 139.6 377.6 139.6 384.4 139.6 390.7 137.3 395.8 133.4L400.2 137.8C399.8 140 400.4 142.3 402.1 144L414.6 156.5C416 157.9 417.8 158.6 419.6 158.6 421.4 158.6 423.2 157.9 424.6 156.5 427.2 153.7 427.2 149.3 424.5 146.6ZM377.5 133.5C364.3 133.5 353.5 122.7 353.5 109.5 353.5 96.3 364.3 85.5 377.5 85.5 390.7 85.5 401.5 96.3 401.5 109.5 401.5 122.7 390.7 133.5 377.5 133.5Z" fill="#E0144C"/></g></svg>